<svg width="500" height="500" viewBox="0 0 500 500" fill="none" xmlns="http://www.w3.org/2000/svg">
<path d="M29.8359 230.615H38.625L56.0566 288.916L73.6348 230.615H81.9844L100.051 288.916L116.994 230.615H125.783L104.396 300H95.5586L77.3457 242.041L60.3047 300H51.4668L29.8359 230.615ZM174.145 230.615H183.959L201.635 259.277L219.701 230.615H228.979L205.346 267.139V300H197.045V267.139L174.145 230.615ZM285.641 230.615H296.139L333.932 288.672V230.615H342.232V300H331.734L293.941 241.846V300H285.641V230.615ZM415.496 237.939V292.676H425.604C427.068 292.676 428.273 292.66 429.217 292.627C430.193 292.594 431.495 292.497 433.123 292.334C434.783 292.171 436.199 291.927 437.371 291.602C438.576 291.276 439.926 290.804 441.424 290.186C442.954 289.567 444.305 288.818 445.477 287.939C446.648 287.061 447.82 285.938 448.992 284.57C450.164 283.203 451.189 281.657 452.068 279.932C454.217 275.798 455.291 270.768 455.291 264.844C455.291 260.742 454.689 257.048 453.484 253.76C452.312 250.439 450.734 247.754 448.748 245.703C446.795 243.62 444.695 241.976 442.449 240.771C440.236 239.567 437.908 238.753 435.467 238.33C434.035 238.07 431.87 237.939 428.973 237.939H415.496ZM428.68 230.615C433.172 230.615 437.257 231.071 440.936 231.982C444.614 232.861 447.69 234.115 450.164 235.742C452.671 237.37 454.819 239.209 456.609 241.26C458.4 243.311 459.783 245.605 460.76 248.145C461.769 250.651 462.501 253.125 462.957 255.566C463.413 258.008 463.641 260.547 463.641 263.184C463.641 266.211 463.413 269.124 462.957 271.924C462.501 274.723 461.704 277.572 460.564 280.469C459.458 283.366 458.025 285.97 456.268 288.281C454.542 290.56 452.296 292.627 449.529 294.482C446.762 296.305 443.621 297.656 440.105 298.535C438.283 298.991 436.248 299.333 434.002 299.561C431.756 299.788 429.9 299.919 428.436 299.951C426.971 299.984 424.904 300 422.234 300H407.195V230.615H428.68Z" fill="#F2F2F2"/>
<path d="M392 267L477 267" stroke="#F2F2F2" stroke-width="10"/>
</svg>
