<svg width="454" height="142" viewBox="0 0 454 142" fill="none" xmlns="http://www.w3.org/2000/svg">
<path d="M6.83594 40.6152H15.625L33.0566 98.916L50.6348 40.6152H58.9844L77.0508 98.916L93.9941 40.6152H102.783L81.3965 110H72.5586L54.3457 52.041L37.3047 110H28.4668L6.83594 40.6152ZM151.145 40.6152H160.959L178.635 69.2773L196.701 40.6152H205.979L182.346 77.1387V110H174.045V77.1387L151.145 40.6152ZM262.641 40.6152H273.139L310.932 98.6719V40.6152H319.232V110H308.734L270.941 51.8457V110H262.641V40.6152ZM392.496 47.9395V102.676H402.604C404.068 102.676 405.273 102.66 406.217 102.627C407.193 102.594 408.495 102.497 410.123 102.334C411.783 102.171 413.199 101.927 414.371 101.602C415.576 101.276 416.926 100.804 418.424 100.186C419.954 99.5671 421.305 98.8184 422.477 97.9395C423.648 97.0605 424.82 95.9375 425.992 94.5703C427.164 93.2031 428.189 91.6569 429.068 89.9316C431.217 85.7975 432.291 80.7682 432.291 74.8438C432.291 70.7422 431.689 67.0475 430.484 63.7598C429.312 60.4395 427.734 57.7539 425.748 55.7031C423.795 53.6198 421.695 51.9759 419.449 50.7715C417.236 49.5671 414.908 48.7533 412.467 48.3301C411.035 48.0697 408.87 47.9395 405.973 47.9395H392.496ZM405.68 40.6152C410.172 40.6152 414.257 41.071 417.936 41.9824C421.614 42.8613 424.69 44.1146 427.164 45.7422C429.671 47.3698 431.819 49.209 433.609 51.2598C435.4 53.3105 436.783 55.6055 437.76 58.1445C438.769 60.651 439.501 63.125 439.957 65.5664C440.413 68.0078 440.641 70.5469 440.641 73.1836C440.641 76.2109 440.413 79.1243 439.957 81.9238C439.501 84.7233 438.704 87.5716 437.564 90.4688C436.458 93.3659 435.025 95.9701 433.268 98.2812C431.542 100.56 429.296 102.627 426.529 104.482C423.762 106.305 420.621 107.656 417.105 108.535C415.283 108.991 413.248 109.333 411.002 109.561C408.756 109.788 406.9 109.919 405.436 109.951C403.971 109.984 401.904 110 399.234 110H384.195V40.6152H405.68Z" fill="#F2F2F2"/>
<path d="M369 77L454 77" stroke="#F2F2F2" stroke-width="10"/>
</svg>
